<svg width="24" height="24" viewBox="0 0 24 24" fill="none" xmlns="http://www.w3.org/2000/svg">
<path fill-rule="evenodd" clip-rule="evenodd" d="M20.3372 3.66354C20.5497 3.87608 20.6907 4.14959 20.7406 4.44601C21.0352 6.15705 21.3975 9.64124 19.8352 11.2064C18.065 12.9739 11.35 16.7226 9.22399 17.8887C9.03581 17.9917 8.81921 18.0306 8.60695 17.9995C8.39469 17.9684 8.19833 17.8691 8.04758 17.7164L7.16574 16.8355L6.2886 15.9518C6.13598 15.801 6.03661 15.6046 6.00554 15.3924C5.97447 15.1801 6.01337 14.9635 6.11638 14.7753C7.28055 12.6492 11.0291 5.93399 12.7984 4.16366C14.3597 2.60132 17.8438 2.96555 19.5548 3.26014C19.8512 3.30999 20.1247 3.45099 20.3372 3.66354ZM5.4071 7.57564L9.40784 7.23493L6.71715 11.7158L3.85988 11.3808C3.67585 11.3554 3.50257 11.2791 3.35965 11.1604C3.21672 11.0417 3.10984 10.8855 3.0511 10.7092C2.99235 10.533 2.98408 10.3438 3.02722 10.1631C3.07036 9.9824 3.16318 9.81737 3.29521 9.68667L5.4071 7.57564ZM16.7643 14.5961L16.4237 18.5969L14.3127 20.7089C14.1818 20.8396 14.0172 20.9312 13.8372 20.9736C13.6572 21.0159 13.4689 21.0073 13.2935 20.9486C13.1182 20.89 12.9626 20.7837 12.8442 20.6416C12.7258 20.4996 12.6494 20.3273 12.6234 20.1442L12.2008 17.3367L16.7643 14.5961ZM17.6048 8.38667C17.6048 9.48603 16.7136 10.3772 15.6143 10.3772C14.5149 10.3772 13.6238 9.48603 13.6238 8.38667C13.6238 7.28731 14.5149 6.3961 15.6143 6.3961C16.7136 6.3961 17.6048 7.28731 17.6048 8.38667Z" fill="#63924F"/>
</svg>
